<?xml version="1.0" encoding="iso-8859-1"?>
<!-- Uploaded to: SVG Repo, www.svgrepo.com, Generator: SVG Repo Mixer Tools -->
<!DOCTYPE svg PUBLIC "-//W3C//DTD SVG 1.1//EN" "http://www.w3.org/Graphics/SVG/1.1/DTD/svg11.dtd">
<svg fill="#000000" height="800px" width="800px" version="1.1" id="Capa_1" xmlns="http://www.w3.org/2000/svg" xmlns:xlink="http://www.w3.org/1999/xlink" 
	 viewBox="0 0 60 60" xml:space="preserve">
<g>
	<path d="M46,34c-7.168,0-13,5.832-13,13s5.832,13,13,13s13-5.832,13-13S53.168,34,46,34z M46,58c-6.065,0-11-4.935-11-11
		s4.935-11,11-11s11,4.935,11,11S52.065,58,46,58z"/>
	<path d="M50.95,42.051c-0.391-0.391-1.023-0.391-1.414,0L46,45.586l-3.536-3.535c-0.391-0.391-1.023-0.391-1.414,0
		s-0.391,1.023,0,1.414L44.586,47l-3.536,3.535c-0.391,0.391-0.391,1.023,0,1.414c0.195,0.195,0.451,0.293,0.707,0.293
		s0.512-0.098,0.707-0.293L46,48.414l3.536,3.535c0.195,0.195,0.451,0.293,0.707,0.293s0.512-0.098,0.707-0.293
		c0.391-0.391,0.391-1.023,0-1.414L47.414,47l3.536-3.535C51.34,43.074,51.34,42.441,50.95,42.051z"/>
	<path d="M18,22h20V12H18V22z M21,14h14v2H21V14z M21,18h14v2H21V18z"/>
	<path d="M30,47c0-8.822,7.178-16,16-16c0.338,0,0.668,0.03,1,0.051V0H11H1v60h10h25.708C32.655,57.094,30,52.356,30,47z M9,58H3V2
		h6V58z M16,10h24v14H16V10z"/>
</g>
</svg>